<?xml version="1.0" encoding="utf-8"?>
<!-- Generator: Adobe Illustrator 28.2.0, SVG Export Plug-In . SVG Version: 6.00 Build 0)  -->
<svg version="1.1" id="Calque_1" xmlns="http://www.w3.org/2000/svg" xmlns:xlink="http://www.w3.org/1999/xlink" x="0px" y="0px"
	 viewBox="0 0 841.89 595.28" style="enable-background:new 0 0 841.89 595.28;height:70px" xml:space="preserve">
<style type="text/css">
	.st0{fill:#FFFFFF;}
</style>
<g>
	<g>
		<path class="st0" d="M691.61,593.09c-170.87,0-341.74,0-512.61,0c0-197.76,0-395.52,0-593.27c170.87,0,341.74,0,512.61,0
			C691.61,197.58,691.61,395.33,691.61,593.09z M218.4,314.24c-0.07,0.33-0.13,0.67-0.2,1c4.31,0,8.64-0.27,12.93,0.04
			c28.86,2.12,57.97,2.68,86.52,6.95c51.25,7.66,93.4,50.72,101.33,101.54c2.8,17.9,4,36.07,5.35,54.16
			c1.08,14.45,1.28,28.97,1.87,43.45c1.12-3.61,1.33-7.23,1.58-10.85c1.86-26.95,2.28-54.1,5.91-80.82
			c6.47-47.71,33.24-80.97,77.17-100.48c19.8-8.79,41.05-9.84,62.14-11.36c20.82-1.5,41.7-2.32,62.55-3.44
			c-17-1.24-34.08-1.55-51.03-3.18c-20.59-1.99-41.88-2.42-61.46-8.26c-48.59-14.5-79.32-47.99-88.16-98.07
			c-5.04-28.58-4.91-58.08-7.09-87.17c-0.28-3.78-0.47-7.58-0.71-11.37c-2.06,26.36-3.62,52.63-5.44,78.87
			c-3.23,46.61-23.98,82.72-64.47,106.87c-21.64,12.91-45.69,16.44-70.24,17.96C264.12,311.51,241.26,312.86,218.4,314.24z"/>
		<path d="M218.4,314.24c22.86-1.38,45.72-2.73,68.57-4.15c24.55-1.52,48.6-5.05,70.24-17.96c40.49-24.15,61.24-60.27,64.47-106.87
			c1.82-26.25,3.38-52.51,5.44-78.87c0.23,3.79,0.42,7.58,0.71,11.37c2.18,29.09,2.04,58.59,7.09,87.17
			c8.84,50.08,39.57,83.57,88.16,98.07c19.57,5.84,40.86,6.27,61.46,8.26c16.95,1.64,34.03,1.94,51.03,3.18
			c-20.85,1.12-41.72,1.94-62.55,3.44c-21.09,1.52-42.34,2.57-62.14,11.36c-43.93,19.51-70.7,52.76-77.17,100.48
			c-3.62,26.71-4.05,53.86-5.91,80.82c-0.25,3.62-0.46,7.25-1.58,10.85c-0.59-14.49-0.79-29-1.87-43.45
			c-1.35-18.09-2.56-36.26-5.35-54.16c-7.94-50.82-50.08-93.88-101.33-101.54c-28.55-4.27-57.66-4.82-86.52-6.95
			c-4.29-0.32-8.62-0.04-12.93-0.04C218.27,314.91,218.34,314.57,218.4,314.24z"/>
	</g>
</g>
</svg>
